<svg xmlns="http://www.w3.org/2000/svg" viewBox="0 0 900 500">
  <defs>
    <linearGradient id="curveGradient" x1="0%" y1="0%" x2="100%" y2="0%">
      <stop offset="0%" style="stop-color:#3b82f6;stop-opacity:0.15" />
      <stop offset="100%" style="stop-color:#8b5cf6;stop-opacity:0.15" />
    </linearGradient>
  </defs>
  
  <!-- Background -->
  <rect width="900" height="500" fill="#fafafa"/>
  
  <!-- Title -->
  <text x="450" y="50" text-anchor="middle" font-family="system-ui, -apple-system, sans-serif" font-size="22" font-weight="600" fill="#1f2937">Technology Adoption Curve × AI Products</text>
  
  <!-- The Bell Curve - more space -->
  <path d="M 80 400 Q 140 400, 180 375 Q 220 350, 270 260 Q 320 170, 400 120 Q 480 70, 450 70 Q 520 70, 600 120 Q 680 170, 730 260 Q 780 350, 800 375 Q 830 400, 850 400" 
        fill="url(#curveGradient)" stroke="#6366f1" stroke-width="3"/>
  
  <!-- Chasm Line -->
  <line x1="320" y1="80" x2="320" y2="420" stroke="#ef4444" stroke-width="2" stroke-dasharray="8,4"/>
  <text x="320" y="455" text-anchor="middle" font-family="system-ui, sans-serif" font-size="13" font-weight="600" fill="#ef4444">THE CHASM</text>
  
  <!-- Segment Labels - more breathing room -->
  <text x="130" y="435" text-anchor="middle" font-family="system-ui, sans-serif" font-size="13" fill="#6b7280">Innovators</text>
  <text x="130" y="455" text-anchor="middle" font-family="system-ui, sans-serif" font-size="11" fill="#9ca3af">2.5%</text>
  
  <text x="235" y="435" text-anchor="middle" font-family="system-ui, sans-serif" font-size="13" fill="#6b7280">Early Adopters</text>
  <text x="235" y="455" text-anchor="middle" font-family="system-ui, sans-serif" font-size="11" fill="#9ca3af">13.5%</text>
  
  <text x="450" y="435" text-anchor="middle" font-family="system-ui, sans-serif" font-size="13" fill="#6b7280">Early Majority</text>
  <text x="450" y="455" text-anchor="middle" font-family="system-ui, sans-serif" font-size="11" fill="#9ca3af">34%</text>
  
  <text x="665" y="435" text-anchor="middle" font-family="system-ui, sans-serif" font-size="13" fill="#6b7280">Late Majority</text>
  <text x="665" y="455" text-anchor="middle" font-family="system-ui, sans-serif" font-size="11" fill="#9ca3af">34%</text>
  
  <text x="820" y="435" text-anchor="middle" font-family="system-ui, sans-serif" font-size="13" fill="#6b7280">Laggards</text>
  <text x="820" y="455" text-anchor="middle" font-family="system-ui, sans-serif" font-size="11" fill="#9ca3af">16%</text>
  
  <!-- AI Products - Stuck (Red) - spread out more -->
  <circle cx="150" cy="340" r="10" fill="#ef4444"/>
  <text x="150" y="315" text-anchor="middle" font-family="system-ui, sans-serif" font-size="13" font-weight="500" fill="#ef4444">Character.ai</text>
  
  <circle cx="200" cy="310" r="10" fill="#ef4444"/>
  <text x="200" y="285" text-anchor="middle" font-family="system-ui, sans-serif" font-size="13" font-weight="500" fill="#ef4444">Replika</text>
  
  <!-- AI Products - Crossing (Green) with arrows -->
  <circle cx="380" cy="135" r="10" fill="#10b981"/>
  <text x="380" y="115" text-anchor="middle" font-family="system-ui, sans-serif" font-size="13" font-weight="500" fill="#10b981">Cursor</text>
  <path d="M 392 135 L 440 120" stroke="#10b981" stroke-width="2" marker-end="url(#arrowhead)"/>
  
  <circle cx="410" cy="165" r="10" fill="#10b981"/>
  <text x="410" y="195" text-anchor="middle" font-family="system-ui, sans-serif" font-size="13" font-weight="500" fill="#10b981">Copilot</text>
  <path d="M 422 160 L 470 140" stroke="#10b981" stroke-width="2" marker-end="url(#arrowhead)"/>
  
  <circle cx="350" cy="195" r="10" fill="#10b981"/>
  <text x="350" y="225" text-anchor="middle" font-family="system-ui, sans-serif" font-size="13" font-weight="500" fill="#10b981">Harvey</text>
  <path d="M 362 190 L 410 165" stroke="#10b981" stroke-width="2" marker-end="url(#arrowhead)"/>
  
  <circle cx="520" cy="95" r="10" fill="#3b82f6"/>
  <text x="520" y="125" text-anchor="middle" font-family="system-ui, sans-serif" font-size="13" font-weight="500" fill="#3b82f6">ChatGPT</text>
  
  <!-- Arrow marker -->
  <defs>
    <marker id="arrowhead" markerWidth="10" markerHeight="7" refX="9" refY="3.5" orient="auto">
      <polygon points="0 0, 10 3.5, 0 7" fill="#10b981"/>
    </marker>
  </defs>
  
  <!-- Legend - repositioned with more space -->
  <rect x="640" y="100" width="220" height="110" rx="10" fill="white" stroke="#e5e7eb" stroke-width="1"/>
  <circle cx="668" cy="135" r="8" fill="#10b981"/>
  <text x="688" y="140" font-family="system-ui, sans-serif" font-size="13" fill="#374151">Crossing the chasm</text>
  <circle cx="668" cy="165" r="8" fill="#ef4444"/>
  <text x="688" y="170" font-family="system-ui, sans-serif" font-size="13" fill="#374151">Stuck pre-chasm</text>
  <circle cx="668" cy="195" r="8" fill="#3b82f6"/>
  <text x="688" y="200" font-family="system-ui, sans-serif" font-size="13" fill="#374151">Crossed (mainstream)</text>
</svg>