<svg xmlns="http://www.w3.org/2000/svg" viewBox="0 0 800 400">
  <defs>
    <linearGradient id="curveGradient" x1="0%" y1="0%" x2="100%" y2="0%">
      <stop offset="0%" style="stop-color:#3b82f6;stop-opacity:0.2" />
      <stop offset="100%" style="stop-color:#8b5cf6;stop-opacity:0.2" />
    </linearGradient>
  </defs>
  
  <!-- Background -->
  <rect width="800" height="400" fill="#fafafa"/>
  
  <!-- Title -->
  <text x="400" y="35" text-anchor="middle" font-family="system-ui, -apple-system, sans-serif" font-size="20" font-weight="600" fill="#1f2937">Technology Adoption Curve × AI Products</text>
  
  <!-- The Bell Curve -->
  <path d="M 50 320 Q 100 320, 130 300 Q 160 280, 200 200 Q 240 120, 300 80 Q 360 40, 400 40 Q 440 40, 500 80 Q 560 120, 600 200 Q 640 280, 680 300 Q 720 320, 750 320" 
        fill="url(#curveGradient)" stroke="#6366f1" stroke-width="3"/>
  
  <!-- Chasm Line -->
  <line x1="265" y1="50" x2="265" y2="340" stroke="#ef4444" stroke-width="2" stroke-dasharray="8,4"/>
  <text x="265" y="365" text-anchor="middle" font-family="system-ui, sans-serif" font-size="11" font-weight="600" fill="#ef4444">THE CHASM</text>
  
  <!-- Segment Labels -->
  <text x="90" y="350" text-anchor="middle" font-family="system-ui, sans-serif" font-size="11" fill="#6b7280">Innovators</text>
  <text x="90" y="365" text-anchor="middle" font-family="system-ui, sans-serif" font-size="10" fill="#9ca3af">2.5%</text>
  
  <text x="185" y="350" text-anchor="middle" font-family="system-ui, sans-serif" font-size="11" fill="#6b7280">Early Adopters</text>
  <text x="185" y="365" text-anchor="middle" font-family="system-ui, sans-serif" font-size="10" fill="#9ca3af">13.5%</text>
  
  <text x="370" y="350" text-anchor="middle" font-family="system-ui, sans-serif" font-size="11" fill="#6b7280">Early Majority</text>
  <text x="370" y="365" text-anchor="middle" font-family="system-ui, sans-serif" font-size="10" fill="#9ca3af">34%</text>
  
  <text x="550" y="350" text-anchor="middle" font-family="system-ui, sans-serif" font-size="11" fill="#6b7280">Late Majority</text>
  <text x="550" y="365" text-anchor="middle" font-family="system-ui, sans-serif" font-size="10" fill="#9ca3af">34%</text>
  
  <text x="700" y="350" text-anchor="middle" font-family="system-ui, sans-serif" font-size="11" fill="#6b7280">Laggards</text>
  <text x="700" y="365" text-anchor="middle" font-family="system-ui, sans-serif" font-size="10" fill="#9ca3af">16%</text>
  
  <!-- AI Products - Stuck (Red) -->
  <circle cx="120" cy="280" r="8" fill="#ef4444"/>
  <text x="120" y="265" text-anchor="middle" font-family="system-ui, sans-serif" font-size="11" font-weight="500" fill="#ef4444">Character.ai</text>
  
  <circle cx="150" cy="260" r="8" fill="#ef4444"/>
  <text x="150" y="245" text-anchor="middle" font-family="system-ui, sans-serif" font-size="11" font-weight="500" fill="#ef4444">Replika</text>
  
  <!-- AI Products - Crossing (Green) with arrows -->
  <circle cx="320" cy="95" r="8" fill="#10b981"/>
  <text x="320" y="80" text-anchor="middle" font-family="system-ui, sans-serif" font-size="11" font-weight="500" fill="#10b981">Cursor</text>
  <path d="M 328 95 L 365 95" stroke="#10b981" stroke-width="2" marker-end="url(#arrowhead)"/>
  
  <circle cx="340" cy="120" r="8" fill="#10b981"/>
  <text x="340" y="140" text-anchor="middle" font-family="system-ui, sans-serif" font-size="11" font-weight="500" fill="#10b981">Copilot</text>
  <path d="M 348 120 L 385 105" stroke="#10b981" stroke-width="2" marker-end="url(#arrowhead)"/>
  
  <circle cx="290" cy="140" r="8" fill="#10b981"/>
  <text x="290" y="160" text-anchor="middle" font-family="system-ui, sans-serif" font-size="11" font-weight="500" fill="#10b981">Harvey</text>
  <path d="M 298 140 L 335 125" stroke="#10b981" stroke-width="2" marker-end="url(#arrowhead)"/>
  
  <circle cx="420" cy="55" r="8" fill="#3b82f6"/>
  <text x="420" y="75" text-anchor="middle" font-family="system-ui, sans-serif" font-size="11" font-weight="500" fill="#3b82f6">ChatGPT</text>
  
  <!-- Arrow marker -->
  <defs>
    <marker id="arrowhead" markerWidth="10" markerHeight="7" refX="9" refY="3.5" orient="auto">
      <polygon points="0 0, 10 3.5, 0 7" fill="#10b981"/>
    </marker>
  </defs>
  
  <!-- Legend -->
  <rect x="560" y="70" width="200" height="90" rx="8" fill="white" stroke="#e5e7eb" stroke-width="1"/>
  <circle cx="580" cy="95" r="6" fill="#10b981"/>
  <text x="595" y="99" font-family="system-ui, sans-serif" font-size="11" fill="#374151">Crossing the chasm</text>
  <circle cx="580" cy="120" r="6" fill="#ef4444"/>
  <text x="595" y="124" font-family="system-ui, sans-serif" font-size="11" fill="#374151">Stuck pre-chasm</text>
  <circle cx="580" cy="145" r="6" fill="#3b82f6"/>
  <text x="595" y="149" font-family="system-ui, sans-serif" font-size="11" fill="#374151">Crossed (mainstream)</text>
</svg>