<svg xmlns="http://www.w3.org/2000/svg" viewBox="0 0 900 480">
  <!-- Background -->
  <rect width="900" height="480" fill="#fafafa"/>
  
  <!-- Title -->
  <text x="450" y="45" text-anchor="middle" font-family="system-ui, -apple-system, sans-serif" font-size="22" font-weight="600" fill="#1f2937">AI Startup Growth Comparison</text>
  
  <!-- Subtitle -->
  <text x="450" y="75" text-anchor="middle" font-family="system-ui, sans-serif" font-size="14" fill="#6b7280">Revenue changes 2023–2025</text>
  
  <!-- Y-axis labels - more space -->
  <text x="55" y="130" text-anchor="end" font-family="system-ui, sans-serif" font-size="12" fill="#6b7280">$200M+</text>
  <text x="55" y="195" text-anchor="end" font-family="system-ui, sans-serif" font-size="12" fill="#6b7280">$100M</text>
  <text x="55" y="260" text-anchor="end" font-family="system-ui, sans-serif" font-size="12" fill="#6b7280">$50M</text>
  <text x="55" y="325" text-anchor="end" font-family="system-ui, sans-serif" font-size="12" fill="#6b7280">$25M</text>
  <text x="55" y="390" text-anchor="end" font-family="system-ui, sans-serif" font-size="12" fill="#6b7280">$0</text>
  
  <!-- Grid lines -->
  <line x1="70" y1="125" x2="850" y2="125" stroke="#e5e7eb" stroke-width="1"/>
  <line x1="70" y1="190" x2="850" y2="190" stroke="#e5e7eb" stroke-width="1"/>
  <line x1="70" y1="255" x2="850" y2="255" stroke="#e5e7eb" stroke-width="1"/>
  <line x1="70" y1="320" x2="850" y2="320" stroke="#e5e7eb" stroke-width="1"/>
  <line x1="70" y1="385" x2="850" y2="385" stroke="#e5e7eb" stroke-width="1"/>
  
  <!-- CURSOR - Growth bars - more space between bars -->
  <rect x="100" y="370" width="55" height="15" fill="#10b981" rx="4"/>
  <text x="127" y="382" text-anchor="middle" font-family="system-ui, sans-serif" font-size="10" fill="white">$1M</text>
  
  <rect x="170" y="280" width="55" height="105" fill="#10b981" rx="4"/>
  <text x="197" y="340" text-anchor="middle" font-family="system-ui, sans-serif" font-size="10" fill="white">$100M</text>
  
  <rect x="240" y="125" width="55" height="260" fill="#10b981" rx="4"/>
  <text x="267" y="260" text-anchor="middle" font-family="system-ui, sans-serif" font-size="10" fill="white">$200M</text>
  
  <text x="177" y="415" text-anchor="middle" font-family="system-ui, sans-serif" font-size="14" font-weight="500" fill="#374151">Cursor</text>
  <text x="177" y="435" text-anchor="middle" font-family="system-ui, sans-serif" font-size="12" fill="#10b981">+19,900%</text>
  
  <!-- HARVEY - Growth bars -->
  <rect x="360" y="330" width="55" height="55" fill="#10b981" rx="4"/>
  <text x="387" y="362" text-anchor="middle" font-family="system-ui, sans-serif" font-size="10" fill="white">$50M</text>
  
  <rect x="430" y="280" width="55" height="105" fill="#10b981" rx="4"/>
  <text x="457" y="340" text-anchor="middle" font-family="system-ui, sans-serif" font-size="10" fill="white">$75M</text>
  
  <text x="415" y="415" text-anchor="middle" font-family="system-ui, sans-serif" font-size="14" font-weight="500" fill="#374151">Harvey AI</text>
  <text x="415" y="435" text-anchor="middle" font-family="system-ui, sans-serif" font-size="12" fill="#10b981">$8B valuation</text>
  
  <!-- CHARACTER.AI - Declining -->
  <rect x="550" y="310" width="55" height="75" fill="#ef4444" rx="4"/>
  <text x="577" y="352" text-anchor="middle" font-family="system-ui, sans-serif" font-size="10" fill="white">$32M</text>
  
  <rect x="620" y="318" width="55" height="67" fill="#ef4444" rx="4" opacity="0.7"/>
  <text x="647" y="356" text-anchor="middle" font-family="system-ui, sans-serif" font-size="10" fill="white">~$30M</text>
  
  <text x="612" y="415" text-anchor="middle" font-family="system-ui, sans-serif" font-size="14" font-weight="500" fill="#374151">Character.ai</text>
  <text x="612" y="435" text-anchor="middle" font-family="system-ui, sans-serif" font-size="12" fill="#ef4444">Val: $2.5B → $1B</text>
  
  <!-- REPLIKA - Declining -->
  <rect x="720" y="320" width="55" height="65" fill="#ef4444" rx="4"/>
  <text x="747" y="358" text-anchor="middle" font-family="system-ui, sans-serif" font-size="10" fill="white">$30M</text>
  
  <rect x="790" y="335" width="55" height="50" fill="#ef4444" rx="4" opacity="0.7"/>
  <text x="817" y="365" text-anchor="middle" font-family="system-ui, sans-serif" font-size="10" fill="white">$24M</text>
  
  <text x="782" y="415" text-anchor="middle" font-family="system-ui, sans-serif" font-size="14" font-weight="500" fill="#374151">Replika</text>
  <text x="782" y="435" text-anchor="middle" font-family="system-ui, sans-serif" font-size="12" fill="#ef4444">-20% revenue</text>
  
  <!-- Year labels -->
  <text x="127" y="455" text-anchor="middle" font-family="system-ui, sans-serif" font-size="11" fill="#9ca3af">2023</text>
  <text x="197" y="455" text-anchor="middle" font-family="system-ui, sans-serif" font-size="11" fill="#9ca3af">2024</text>
  <text x="267" y="455" text-anchor="middle" font-family="system-ui, sans-serif" font-size="11" fill="#9ca3af">2025</text>
  
  <!-- Legend - repositioned -->
  <rect x="665" y="100" width="185" height="70" rx="8" fill="white" stroke="#e5e7eb"/>
  <rect x="685" y="122" width="16" height="16" fill="#10b981" rx="3"/>
  <text x="710" y="135" font-family="system-ui, sans-serif" font-size="13" fill="#374151">Process Acceleration</text>
  <rect x="685" y="148" width="16" height="16" fill="#ef4444" rx="3"/>
  <text x="710" y="161" font-family="system-ui, sans-serif" font-size="13" fill="#374151">Behavior Change</text>
</svg>